<?xml version="1.0" encoding="UTF-8"?>
<svg width="42px" height="36px" viewBox="0 0 42 36" version="1.1" xmlns="http://www.w3.org/2000/svg" xmlns:xlink="http://www.w3.org/1999/xlink">
    <!-- Generator: sketchtool 50.2 (55047) - http://www.bohemiancoding.com/sketch -->
    <title>A9FCB629-4B55-418F-B371-8FC45046ADBB@1.5x</title>
    <desc>Created with sketchtool.</desc>
    <defs></defs>
    <g id="Web-Portal" stroke="none" stroke-width="1" fill="none" fill-rule="evenodd">
        <g id="Home_Ver-3.7" transform="translate(-713.000000, -746.000000)">
            <g id="Group-22" transform="translate(714.000000, 747.000000)">
                <g>
                    <path d="M35.3488372,18.3783784 C35.3488372,25.4831693 29.7260955,31.2432432 22.7906977,31.2432432 C15.8552999,31.2432432 10.2325581,25.4831693 10.2325581,18.3783784 C10.2325581,11.2735875 15.8552999,5.51351351 22.7906977,5.51351351 C29.7260955,5.51351351 35.3488372,11.2735875 35.3488372,18.3783784 Z" id="Fill-1" fill="#E9EAEB"></path>
                    <path d="M34.8283166,28.8723986 L34.8283166,28.8723986 C34.1348354,29.5829624 33.0107142,29.5829624 32.3165775,28.8730702 L29.3578118,26.0805143 C28.6636751,25.3699505 28.6636751,24.2167955 29.3578118,23.5062317 C30.051293,22.795668 31.1754142,22.7949963 31.8695509,23.5055601 L34.8276612,26.2974444 C35.5224533,27.0086798 35.5224533,28.1611632 34.8283166,28.8723986" id="Fill-16" fill="#6DC653"></path>
                    <path d="M34.8283166,28.8723986 L34.8283166,28.8723986 C34.1348354,29.5829624 33.0107142,29.5829624 32.3165775,28.8730702 L29.3578118,26.0805143 C28.6636751,25.3699505 28.6636751,24.2167955 29.3578118,23.5062317 C30.051293,22.795668 31.1754142,22.7949963 31.8695509,23.5055601 L34.8276612,26.2974444 C35.5224533,27.0086798 35.5224533,28.1611632 34.8283166,28.8723986 Z" id="Stroke-17" stroke="#28AC58"></path>
                    <g id="Group-14">
                        <polygon id="Fill-3" fill="#FFFFFF" points="0 0 0 21.5371622 27.4784483 21.5371622 27.4784483 9.42250845 27.4784483 0"></polygon>
                        <polyline id="Stroke-5" stroke="#3B3E41" points="27.4784483 9.42250845 27.4784483 0 0 0 0 21.5371622 14.7445332 21.5371622"></polyline>
                        <polygon id="Fill-7" fill="#6DC653" points="10.237069 4.30743243 17.7801724 4.30743243 17.7801724 0 10.237069 0"></polygon>
                        <polygon id="Stroke-9" stroke="#28AC58" points="10.237069 4.30743243 17.7801724 4.30743243 17.7801724 0 10.237069 0"></polygon>
                        <path d="M2.15517241,19.3834459 L3.23275862,19.3834459" id="Stroke-10" stroke="#28AC58" stroke-width="2"></path>
                        <path d="M4.84913793,19.3834459 L5.92672414,19.3834459" id="Stroke-11" stroke="#28AC58" stroke-width="2"></path>
                        <path d="M7.54310345,19.3834459 L8.62068966,19.3834459" id="Stroke-12" stroke="#28AC58" stroke-width="2"></path>
                        <path d="M28.0172414,23.1524493 L32.3275862,26.9214527" id="Stroke-13" stroke="#6DC653"></path>
                        <path d="M22.899037,25.3061655 C18.8820414,25.3061655 15.625,21.9314495 15.625,17.7681588 C15.625,13.6048681 18.8820414,10.230152 22.899037,10.230152 C26.9160327,10.230152 30.1724138,13.6048681 30.1724138,17.7681588 C30.1724138,21.9314495 26.9160327,25.3061655 22.899037,25.3061655 Z" id="Fill-14" fill="#FFFFFF"></path>
                        <path d="M30.1724138,17.7681588 C30.1724138,21.9314495 26.9160327,25.3061655 22.899037,25.3061655 C18.8820414,25.3061655 15.625,21.9314495 15.625,17.7681588 C15.625,13.6048681 18.8820414,10.230152 22.899037,10.230152 C26.9160327,10.230152 30.1724138,13.6048681 30.1724138,17.7681588 Z" id="Stroke-15" stroke="#28AC58"></path>
                        <path d="M19.3103448,15.0760135 L19.3103448,20.4603041" id="Stroke-18" stroke="#3B3E41"></path>
                        <path d="M22.0689655,15.0760135 L22.0689655,20.4603041" id="Stroke-19" stroke="#3B3E41"></path>
                        <path d="M23.4482759,15.0760135 L23.4482759,20.4603041" id="Stroke-20" stroke="#3B3E41"></path>
                        <path d="M26.2068966,15.0760135 L26.2068966,20.4603041" id="Stroke-21" stroke="#3B3E41"></path>
                        <path d="M31.25,3.23057432 L31.25,3.23057432 C38.9252472,7.36678953 41.9503179,16.5554871 38.380134,24.2293074" id="Stroke-22" stroke="#3B3E41"></path>
                    </g>
                    <path d="M8.37209302,24.8108108 C9.81966993,27.7098107 12.0991643,30.2113838 15.09231,31.9007938 C19.7959212,34.5560755 25.2118322,34.6086965 29.7674419,32.5308607" id="Stroke-23" stroke="#3B3E41"></path>
                </g>
            </g>
        </g>
    </g>
</svg>